<?xml version="1.0" encoding="utf-8"?>
<!-- Generator: Adobe Illustrator 25.2.0, SVG Export Plug-In . SVG Version: 6.00 Build 0)  -->
<svg version="1.1" id="Layer_1" xmlns="http://www.w3.org/2000/svg" xmlns:xlink="http://www.w3.org/1999/xlink" x="0px" y="0px"
	 viewBox="0 0 160 52" style="enable-background:new 0 0 160 52;" xml:space="preserve">
<style type="text/css">
	.st0{opacity:0.6;fill:#F88379;}
	.st1{fill:#F88379;}
</style>
<path class="st0" d="M37,10.7c-0.2-0.3-1-0.1-1.4,0c-7.9,2.1-13.4,7.2-15.3,15c-0.1,0.3-0.1,0.6,0,0.9c0.2,0.2,0.5,0.2,0.8,0.2
	c0.6,0,1.2,0.1,1.7,0.1c8.6,0,10.1-5,11.4-9.3c0.6-2,1-3.8,2.1-5.3C36.6,11.9,37.2,11,37,10.7z"/>
<path class="st1" d="M37.2,5.8c-0.2-0.3-1.2-0.1-1.6,0c-2.2,0.6-4.3,1.4-6.3,2.4c-0.6-2.8-1.9-5.4-3.7-7.7c-0.4-0.6-0.6-0.6-1.2-0.2
	c-2.1,1.3-4,3-5.5,5c-1.5-1.8-3.2-3.3-5.2-4.6c-0.3-0.2-0.9-0.5-1.3-0.2s-0.1,0.8-0.1,1.1c0.1,2.5-0.3,5-1.1,7.3
	C9.7,14.2,8,20.2,17,24.6c-0.4,1.8-0.6,3.6-0.6,5.4c0,0.3,0,0.6,0,0.9c-3.5-4.9-9.7-7.1-15.6-5.4c-0.2,0.1-0.7,0.1-0.8,0.4
	s0.1,0.6,0.2,0.8c2.2,7.1,9.6,11.2,16.9,9.4c1.5,6.4,5.4,12.1,10.9,15.8c0.2,0.1,0.3,0.2,0.5,0.2c0.5,0,0.9-0.4,0.9-0.9
	c0-0.3-0.2-0.6-0.4-0.8c-6.8-4.5-10.8-12.1-10.8-20.2c0-1.7,0.2-3.4,0.5-5.1h1.2c10.4,0,12.2-6,13.8-11.2c0.5-2.3,1.5-4.5,2.8-6.5
	C36.8,6.9,37.3,6.1,37.2,5.8z M13.6,34.6c-5,0-9.4-3-11.3-7.5c0.8-0.2,1.7-0.3,2.5-0.3c5,0,9.6,2.9,11.6,7.5
	C15.4,34.5,14.5,34.6,13.6,34.6z M24.6,2.3c1.5,2,2.5,4.4,2.9,6.8c-4.6,2.8-8,7.1-9.7,12.2C17.3,19.7,17,18,17,16.2
	C17,10.6,19.9,5.4,24.6,2.3L24.6,2.3z M13,9.5c0.6-2,1.1-4,1.2-6.1c1.3,1.1,2.5,2.3,3.5,3.6c-1.7,2.8-2.6,6-2.6,9.3
	c0,2,0.3,3.9,0.9,5.8C10.4,18.5,11.6,14.4,13,9.5z M32,13.2c-1.6,5.5-3.1,10.2-12.7,9.9c1.9-7.2,7.4-12.9,14.6-15
	C33,9.8,32.4,11.5,32,13.2z"/>
<path class="st1" d="M54.9,30.3c4.7-1.1,7.7-5.9,6.5-10.6c-1.1-4.7-5.9-7.7-10.6-6.5c-4.7,1.1-7.7,5.9-6.5,10.6
	c0.8,3.2,3.3,5.8,6.5,6.5v3.1h-12v4.1h28.1v-4.1h-12V30.3z M48.2,22.5c-0.4-2.6,1.4-5,3.9-5.4c2.6-0.4,5,1.4,5.4,3.9
	c0.4,2.6-1.4,5-3.9,5.4c-0.5,0.1-1,0.1-1.5,0C50.1,26.1,48.5,24.6,48.2,22.5z"/>
<polygon class="st1" points="93.5,23.2 93.5,19.1 75.7,19.1 75.7,13.5 71.6,13.5 71.6,19.1 71.6,23.2 75.7,23.2 "/>
<rect x="69.1" y="24.8" class="st1" width="26.8" height="4.1"/>
<polygon class="st1" points="71.6,30.4 71.6,34.5 89.4,34.5 89.4,35.8 71.6,35.8 71.6,36 71.6,39.9 71.6,41 71.6,45.1 75.7,45.1 
	93.5,45.1 93.5,41 75.7,41 75.7,39.9 93.5,39.9 93.5,39.5 93.5,35.8 93.5,34.5 93.5,30.4 89.4,30.4 "/>
<path class="st1" d="M120.6,33.3h-23v4.1h23v8.1c1.4,0,2.8-0.2,4.1-0.5V13.2h-4.1V33.3z"/>
<path class="st1" d="M139.2,23.6c1.4,0,2.8-0.2,4.1-0.5v-9.6h-9.8v4.1h5.6L139.2,23.6L139.2,23.6z"/>
<path class="st1" d="M152.3,23.6c1.4,0,2.8-0.2,4.1-0.5v-9.6h-9.8v4.1h5.6L152.3,23.6L152.3,23.6z"/>
<polygon class="st1" points="148.2,25.6 148.2,21.9 144,21.9 144,25.6 132.2,25.6 132.2,29.6 160,29.6 160,25.6 "/>
<path class="st1" d="M148.4,31h-4.6v2.3h-9.1v3.8h8.3c0,0-1.4,4.2-8.5,4.6v3.9c4.4-0.1,8.6-2,11.5-5.2c2.9,3.3,7.1,5.2,11.5,5.2
	v-3.9c-7-0.4-8.5-4.6-8.5-4.6h8.4v-3.8h-9.2V31H148.4z"/>
<path class="st1" d="M108.6,29.9c4.7,0,8.5-3.8,8.5-8.5s-3.8-8.5-8.5-8.5s-8.5,3.8-8.5,8.5l0,0C100,26.1,103.9,29.9,108.6,29.9
	L108.6,29.9z M108.6,16.9c2.5,0,4.6,2,4.6,4.5s-2,4.6-4.6,4.6s-4.6-2-4.6-4.5l0,0C104,19,106,16.9,108.6,16.9z"/>
</svg>
